<svg width="20" height="24" viewBox="0 0 20 24" fill="none" xmlns="http://www.w3.org/2000/svg">
<path fill-rule="evenodd" clip-rule="evenodd" d="M9.67961 4.20056H9.57023L8.25773 4.474C7.01814 4.72921 5.99732 5.37634 5.19523 6.41541C4.39314 7.45447 3.99211 8.63024 3.99211 9.94275V16.8881L3.49992 17.4349L3.06242 17.8724H16.1874L15.7499 17.4349L15.2577 16.8881V9.94275C15.2577 8.63024 14.8567 7.45447 14.0546 6.41541C13.2525 5.37634 12.2317 4.72921 10.9921 4.474C10.3723 4.29171 9.93482 4.20056 9.67961 4.20056ZM8.36719 0.755249C8.69531 0.427122 9.11458 0.263062 9.625 0.263062C10.1354 0.263062 10.5456 0.427122 10.8555 0.755249C11.1654 1.08338 11.3203 1.48441 11.3203 1.95837V2.77869C12.9609 3.17973 14.319 4.04561 15.3945 5.37634C16.4701 6.70708 17.0078 8.2292 17.0078 9.94275V16.1771L19.25 18.474V19.6224H0V18.474L2.24219 16.1771V9.94275C2.24219 8.2292 2.77994 6.70708 3.85547 5.37634C4.931 4.04561 6.28905 3.17973 7.92969 2.77869V1.95837C7.92969 1.48441 8.07552 1.08338 8.36719 0.755249ZM11.8671 20.7162C11.8671 21.336 11.6484 21.8737 11.2109 22.3295C10.7734 22.7852 10.2447 23.0131 9.62492 23.0131C9.00512 23.0131 8.47648 22.7852 8.03898 22.3295C7.60148 21.8737 7.38273 21.336 7.38273 20.7162H11.8671Z" fill="#026B9C"/>
</svg>
