<svg width="26" height="26" viewBox="0 0 26 26" fill="none" xmlns="http://www.w3.org/2000/svg">
<path fill-rule="evenodd" clip-rule="evenodd" d="M5.14152 17.4937L3.60001 18.2804L12.9735 23.0642L22.3471 18.2804L21.1759 17.6827L23.3758 16.56L25.5832 17.6866C25.9112 17.854 26.0414 18.2555 25.874 18.5834C25.8101 18.7086 25.7084 18.8103 25.5832 18.8742L13.2766 25.155C13.0862 25.2521 12.8608 25.2521 12.6705 25.155L0.363838 18.8742C0.0358885 18.7068 -0.0942858 18.3053 0.0730853 17.9773C0.136947 17.8522 0.238706 17.7505 0.363838 17.6866L2.94167 16.371L5.14152 17.4937ZM5.14152 12.1603L3.60001 12.9471L12.9735 17.7309L22.3471 12.9471L21.1759 12.3494L23.3758 11.2266L25.5832 12.3533C25.9112 12.5206 26.0414 12.9222 25.874 13.2501C25.8101 13.3752 25.7084 13.477 25.5832 13.5409L13.2766 19.8216C13.0862 19.9188 12.8608 19.9188 12.6705 19.8216L0.363838 13.5409C0.0358885 13.3735 -0.0942858 12.972 0.0730853 12.644C0.136947 12.5189 0.238706 12.4171 0.363838 12.3533L2.94167 11.0376L5.14152 12.1603ZM22.3564 7.62047L12.9828 2.83663L3.6093 7.62047L12.9828 12.4043L22.3564 7.62047ZM13.2861 0.745973L25.5927 7.02675C25.9207 7.19412 26.0509 7.59566 25.8835 7.92361C25.8196 8.04874 25.7179 8.1505 25.5927 8.21436L13.2861 14.4951C13.0957 14.5923 12.8703 14.5923 12.68 14.4951L0.373327 8.21436C0.0453776 8.04699 -0.084797 7.64545 0.0825741 7.31751C0.146436 7.19237 0.248195 7.09061 0.373327 7.02675L12.68 0.745973C12.8703 0.648823 13.0957 0.648823 13.2861 0.745973Z" fill="#026B9C"/>
</svg>
