<svg width="23" height="28" viewBox="0 0 23 28" fill="none" xmlns="http://www.w3.org/2000/svg">
<path fill-rule="evenodd" clip-rule="evenodd" d="M4.19735 8.86068V23.654C4.19735 25.1047 3.86535 25.7393 3.54135 25.8607C2.62935 25.8207 1.89868 24.8847 1.89868 23.738V9.97934L4.19735 8.86068ZM8.90393 11.97L9.8666 11.9686H10.2666V11.5686V8.29264H16.8879V11.57V11.9713L17.2879 11.97L18.2533 11.9686H18.6533V11.5686V8.29264H20.5479V23.738C20.5479 24.8633 19.6306 25.7793 18.5039 25.7793L5.77726 25.85C5.98926 25.2486 6.0946 24.5126 6.0946 23.654V8.29264H8.5026V11.57V11.9713L8.90393 11.97ZM16.8879 6.39531H10.2665V6.06864C10.2665 3.82198 11.7519 1.99398 13.5772 1.99398C15.4025 1.99398 16.8879 3.82198 16.8879 6.06864V6.39531ZM22.1693 6.67397C21.9907 6.49397 21.752 6.3953 21.4973 6.3953H18.6547V6.06864C18.6547 2.84864 16.3773 0.228638 13.5787 0.228638C10.78 0.228638 8.50267 2.84864 8.50267 6.06864V6.3953H5.156C5.084 6.3953 5.00933 6.40197 4.94133 6.41664C4.856 6.43797 4.79067 6.46197 4.72267 6.4953L0.533333 8.5313C0.209333 8.68997 0 9.02464 0 9.38597V23.7393C0 25.806 1.41333 27.502 3.29867 27.7113C3.396 27.7446 3.49867 27.762 3.60133 27.762L18.508 27.6793C20.6773 27.6793 22.4453 25.9113 22.4453 23.7393V7.3433C22.4467 7.09264 22.3493 6.85397 22.1693 6.67397V6.67397Z" fill="#026B9C"/>
</svg>
