<svg width="16" height="20" viewBox="0 0 16 20" fill="none" xmlns="http://www.w3.org/2000/svg">
<path fill-rule="evenodd" clip-rule="evenodd" d="M7.99967 17.7458C9.13745 17.7458 10.1828 17.4613 11.1357 16.8924C12.0743 16.3378 12.821 15.584 13.3757 14.6311C13.9303 13.6782 14.2077 12.6329 14.2077 11.4951C14.2077 10.3573 13.9303 9.312 13.3757 8.35911C12.821 7.42044 12.0743 6.67378 11.1357 6.11911C10.1828 5.56444 9.13745 5.28711 7.99967 5.28711C6.86188 5.28711 5.81656 5.56444 4.86367 6.11911C3.925 6.67378 3.17834 7.42044 2.62367 8.35911C2.069 9.312 1.79167 10.3573 1.79167 11.4951C1.79167 12.6329 2.069 13.6782 2.62367 14.6311C3.17834 15.584 3.925 16.3378 4.86367 16.8924C5.81656 17.4613 6.86188 17.7458 7.99967 17.7458ZM14.2507 6.54611C14.8053 7.243 15.232 8.00388 15.5307 8.82878C15.8436 9.68211 16 10.571 16 11.4954C16 12.9461 15.6373 14.2901 14.912 15.5274C14.2009 16.7363 13.2409 17.6963 12.032 18.4074C10.7947 19.1328 9.45067 19.4954 8 19.4954C6.54933 19.4954 5.20534 19.1328 3.968 18.4074C2.75911 17.6963 1.79911 16.7363 1.088 15.5274C0.362663 14.2901 2.38419e-07 12.9461 2.38419e-07 11.4954C2.38419e-07 10.0448 0.362663 8.70078 1.088 7.46344C1.79911 6.25455 2.75911 5.29456 3.968 4.58344C5.20534 3.85811 6.54933 3.49544 8 3.49544C8.91023 3.49544 9.80622 3.659 10.688 3.98611C11.5129 4.299 12.2809 4.73277 12.992 5.28744L14.2507 3.98611C14.6489 4.31322 15.0684 4.73277 15.5093 5.24478L14.2507 6.54611ZM7.125 12.4128V7.07943H8.87433V12.4128H7.125ZM10.6667 0.828776V2.62078H5.33333V0.828776H10.6667Z" fill="#026B9C"/>
</svg>
