<svg width="16" height="18" viewBox="0 0 16 18" fill="none" xmlns="http://www.w3.org/2000/svg">
<path fill-rule="evenodd" clip-rule="evenodd" d="M0.608819 12.6437C1.01591 13.0678 1.53009 13.2894 2.11218 13.2894H12.1309L16 17.1585V2.32788C16 1.75158 15.7888 1.24118 15.3817 0.834037C14.9745 0.426899 14.4641 0.215698 13.8878 0.215698H2.11218C1.53588 0.215698 1.02548 0.426899 0.618339 0.834037C0.211201 1.24118 0 1.75158 0 2.32788V11.142C0 11.7146 0.208209 12.2264 0.608819 12.6437ZM14.4389 1.77681C14.5958 1.93377 14.6667 2.10499 14.6667 2.32784V13.9395L12.6832 11.956H2.11218C1.89512 11.956 1.72768 11.8839 1.57067 11.7203C1.40717 11.55 1.33333 11.3685 1.33333 11.1419V2.32784C1.33333 2.10499 1.40418 1.93377 1.56115 1.77681C1.71812 1.61984 1.88933 1.54899 2.11218 1.54899H13.8878C14.1107 1.54899 14.2819 1.61984 14.4389 1.77681Z" fill="#026B9C"/>
</svg>
