<svg width="20" height="23" viewBox="0 0 20 23" fill="none" xmlns="http://www.w3.org/2000/svg">
<path fill-rule="evenodd" clip-rule="evenodd" d="M5.88775 0.705437C6.02769 0.569779 6.21536 0.495343 6.40893 0.495361L14.4992 0.501349L14.5207 0.501306L14.5273 0.501279C14.7196 0.49888 14.908 0.570388 15.049 0.703195L15.0514 0.705454L19.4475 4.93041C19.5838 5.066 19.6634 5.24912 19.6666 5.44277L19.6667 5.44837L19.6667 16.4323C19.6667 16.6292 19.5859 16.8159 19.4456 16.9519C19.3057 17.0876 19.118 17.162 18.9244 17.162H15.0228V15.7026H18.1822V6.17806L14.5325 6.17806C14.3389 6.17807 14.1512 6.10364 14.0113 5.96799C13.871 5.832 13.7902 5.64531 13.7902 5.44837V1.95477H7.15112L7.15112 4.98252H5.66667V1.2251C5.66666 1.02816 5.74746 0.841429 5.88775 0.705437ZM15.2747 2.96123V4.71866H17.1033L15.2747 2.96123Z" fill="#026B9C"/>
<path fill-rule="evenodd" clip-rule="evenodd" d="M9.38667 6.09535L13.7733 10.322C13.92 10.4687 14 10.642 14 10.842V21.8287C14 22.0287 13.92 22.2153 13.7733 22.3487C13.64 22.482 13.4533 22.562 13.2533 22.562H0.746667C0.546667 22.562 0.36 22.482 0.226667 22.3487C0.08 22.2153 0 22.0153 0 21.8287V6.61535C0 6.42868 0.08 6.24201 0.226667 6.10868C0.36 5.96201 0.546667 5.89535 0.746667 5.89535H8.86667C9.05333 5.90868 9.24 5.96201 9.38667 6.09535ZM9.61333 8.36201V10.1087H11.44L9.61333 8.36201ZM8.86667 11.5753C8.66667 11.5753 8.48 11.4953 8.34667 11.362C8.2 11.2287 8.12 11.042 8.12 10.842V7.34868H1.48V21.0953H12.52V11.5753H8.86667Z" fill="#026B9C"/>
</svg>
