<svg width="20" height="17" viewBox="0 0 20 17" fill="none" xmlns="http://www.w3.org/2000/svg">
<path fill-rule="evenodd" clip-rule="evenodd" d="M1.1346 0.918335C0.462786 0.918335 0 1.56873 0 2.25735V15.3065C0 15.9928 0.461768 16.6455 1.1346 16.6455H18.3654C19.0372 16.6455 19.5 15.9951 19.5 15.3065V2.25735C19.5 1.57107 19.0382 0.918335 18.3654 0.918335H1.1346ZM9.45711 8.87955L2.24402 2.50599H17.256L10.0428 8.87962C9.9776 8.93729 9.87157 8.97609 9.74997 8.97607C9.62835 8.97604 9.52226 8.93715 9.45711 8.87955ZM1.38372 15.0579V3.75188L8.61061 10.1377C8.93287 10.4224 9.34338 10.5623 9.75 10.5623C10.1568 10.5623 10.5674 10.4224 10.8895 10.1376L18.1163 3.75188V15.0579H1.38372Z" fill="#026B9C"/>
</svg>
