<svg width="19" height="16" viewBox="0 0 19 16" fill="none" xmlns="http://www.w3.org/2000/svg">
<path fill-rule="evenodd" clip-rule="evenodd" d="M16.8269 4.33424V2.48993L9.33335 7.07875L1.83976 2.48993V4.33424L9.33335 8.87915L16.8269 4.33424ZM16.8269 0.645508C17.3355 0.645508 17.7692 0.828473 18.1282 1.19441C18.4872 1.56035 18.6667 1.99215 18.6667 2.48982V13.4679C18.6667 13.9655 18.4872 14.3973 18.1282 14.7633C17.7692 15.1292 17.3355 15.3122 16.8269 15.3122H1.83974C1.33119 15.3122 0.897438 15.1292 0.538462 14.7633C0.179485 14.3973 0 13.9655 0 13.4679V2.48982C0 1.99215 0.179485 1.56035 0.538462 1.19441C0.897438 0.828473 1.33119 0.645508 1.83974 0.645508H16.8269Z" fill="#026B9C"/>
</svg>
