<svg width="24" height="22" viewBox="0 0 24 22" fill="none" xmlns="http://www.w3.org/2000/svg">
<path fill-rule="evenodd" clip-rule="evenodd" d="M22.6667 20.237L22.6667 13.6536L22.6666 1.56112L1.33333 1.56112V17.9715H20.4855L22.6667 20.237ZM22.6666 0.227783C23.403 0.227783 24 0.824737 24 1.56112V13.6422L24 13.6548V20.237C24 21.4371 22.5385 22.0263 21.7062 21.1618L19.9183 19.3049H1.33333C0.596954 19.3049 0 18.7079 0 17.9715V1.56112C0 0.824737 0.596956 0.227783 1.33334 0.227783H22.6666ZM10.8952 15.5611H5.29517V4.1051H10.5432V5.4811H7.02317V9.0971H9.91917V10.4891H7.02317V14.1851H10.8952V15.5611ZM13.7065 15.5611H12.1545V4.1051H14.0266L16.5706 10.5691L17.1466 12.1531H17.1785L17.1466 10.5691V4.1051H18.6985V15.5611H17.0026L14.2985 8.8411L13.7226 7.2411H13.6746L13.7065 8.8411V15.5611Z" fill="#026B9C"/>
</svg>
