<svg width="24" height="22" viewBox="0 0 24 22" fill="none" xmlns="http://www.w3.org/2000/svg">
<path fill-rule="evenodd" clip-rule="evenodd" d="M22.6667 20.5822L22.6667 13.9988L22.6666 1.90633L1.33333 1.90633V18.3168H20.4855L22.6667 20.5822ZM22.6666 0.572998C23.403 0.572998 24 1.16995 24 1.90633V13.9874L24 14V20.5822C24 21.7823 22.5385 22.3715 21.7062 21.507L19.9183 19.6501H1.33333C0.596954 19.6501 0 19.0531 0 18.3168V1.90633C0 1.16995 0.596956 0.572998 1.33334 0.572998H22.6666ZM7.52317 15.9062H5.79517V4.4502H11.2032V5.82619H7.52317V9.4422H10.3232V10.8342H7.52317V15.9062ZM13.9763 5.81019V9.6182H14.9683C16.2003 9.6182 16.7603 9.0102 16.7603 7.66619C16.7603 6.27419 16.2643 5.81019 15.1283 5.81019H13.9763ZM13.9763 10.9622V15.9062H12.2483V4.4502H15.4003C17.6563 4.4502 18.5843 5.4902 18.5843 7.52219C18.5843 9.0902 17.8483 10.0822 16.6163 10.4822V10.6422C17.2403 11.0102 17.5603 11.7622 17.8163 13.2022C18.1203 14.8022 18.3123 15.2822 18.6483 15.6662V15.9062H16.7283C16.5203 15.5542 16.3603 14.9622 16.2483 14.2582C16.2087 14.0514 16.1679 13.8337 16.1265 13.6131C16.0175 13.0316 15.9047 12.4298 15.8003 11.9542C15.6563 11.2022 15.5123 10.9622 14.9203 10.9622H13.9763Z" fill="#026B9C"/>
</svg>
