<svg width="19" height="19" viewBox="0 0 19 19" fill="none" xmlns="http://www.w3.org/2000/svg">
<path fill-rule="evenodd" clip-rule="evenodd" d="M17.1667 5.3464H12C12.7361 5.3464 13.3646 5.08598 13.8854 4.56515C14.4063 4.04431 14.6667 3.41584 14.6667 2.67973C14.6667 1.94361 14.4063 1.31515 13.8854 0.794312C13.3646 0.273476 12.7361 0.0130615 12 0.0130615C11.2639 0.0130615 10.6354 0.273476 10.1146 0.794312C9.59375 1.31515 9.33333 1.94361 9.33333 2.67973C9.33333 1.94361 9.07292 1.31515 8.55208 0.794312C8.03125 0.273476 7.40278 0.0130615 6.66667 0.0130615C5.93055 0.0130615 5.30209 0.273476 4.78125 0.794312C4.26041 1.31515 4 1.94361 4 2.67973C4 3.41584 4.26041 4.04431 4.78125 4.56515C5.30209 5.08598 5.93055 5.3464 6.66667 5.3464H1.5C1.08333 5.3464 0.729168 5.49223 0.4375 5.7839C0.145832 6.07556 0 6.42973 0 6.8464V9.17973C0 9.5964 0.145832 9.95056 0.4375 10.2422C0.729168 10.5339 1.08333 10.6797 1.5 10.6797H1.33333V17.1797C1.33333 17.5964 1.47917 17.9506 1.77083 18.2422C2.0625 18.5339 2.41666 18.6797 2.83333 18.6797H15.8333C16.25 18.6797 16.6042 18.5339 16.8958 18.2422C17.1875 17.9506 17.3333 17.5964 17.3333 17.1797V10.6797H17.1667C17.5833 10.6797 17.9375 10.5339 18.2292 10.2422C18.5208 9.95056 18.6667 9.5964 18.6667 9.17973V6.8464C18.6667 6.42973 18.5208 6.07556 18.2292 5.7839C17.9375 5.49223 17.5833 5.3464 17.1667 5.3464ZM6.66659 4.01307C6.3015 4.01307 5.98802 3.88212 5.72611 3.62021C5.4642 3.35831 5.33325 3.04482 5.33325 2.67974C5.33325 2.31466 5.4642 2.00117 5.72611 1.73926C5.98802 1.47736 6.3015 1.34641 6.66659 1.34641C7.03167 1.34641 7.34516 1.47736 7.60706 1.73926C7.86897 2.00117 7.99992 2.31466 7.99992 2.67974V4.01307H6.66659ZM2.66659 17.3464H7.99992V10.6797H2.66659V17.3464ZM7.99992 9.34641H1.33325V6.67974H7.99992V9.34641ZM11.0594 1.73926C10.7975 2.00117 10.6666 2.31466 10.6666 2.67974V4.01307H11.9999C12.365 4.01307 12.6785 3.88212 12.9404 3.62021C13.2023 3.35831 13.3333 3.04482 13.3333 2.67974C13.3333 2.31466 13.2023 2.00117 12.9404 1.73926C12.6785 1.47736 12.365 1.34641 11.9999 1.34641C11.6348 1.34641 11.3213 1.47736 11.0594 1.73926ZM10.6666 17.3464V10.6797H15.9999V17.3464H10.6666ZM10.6666 9.34641H17.3333V6.67974H10.6666V9.34641Z" fill="#026B9C"/>
</svg>
