<svg width="24" height="24" viewBox="0 0 24 24" fill="none" xmlns="http://www.w3.org/2000/svg">
<path fill-rule="evenodd" clip-rule="evenodd" d="M0 12C0 18.6274 5.37258 24 12 24C18.6274 24 24 18.6274 24 12C24 5.37258 18.6274 0 12 0C5.37258 0 0 5.37258 0 12ZM22 12C22 17.5228 17.5228 22 12 22C6.47715 22 2 17.5228 2 12C2 6.47715 6.47715 2 12 2C17.5228 2 22 6.47715 22 12ZM10.8511 14.2426L10.7764 10.9386H11.3364C12.9418 10.9386 13.5017 10.1359 13.5017 8.79194C13.5017 7.2426 13.0724 6.81327 12.3258 6.81327C11.5044 6.81327 11.1311 7.65327 11.1684 8.90394L8.76042 8.4186C8.87242 6.5146 10.0671 5.0026 12.4938 5.0026C14.9204 5.0026 16.1151 6.3466 16.1151 8.66127C16.1151 10.6773 15.0324 11.9839 13.1844 12.4879L13.0911 14.2426H10.8511ZM10.6641 15.736V18.6667H13.2774V15.736H10.6641Z" fill="#026B9C"/>
</svg>
