<svg width="24" height="24" viewBox="0 0 24 24" fill="none" xmlns="http://www.w3.org/2000/svg">
<path fill-rule="evenodd" clip-rule="evenodd" d="M12 0C18.6274 0 24 5.37258 24 12C24 18.6274 18.6274 24 12 24C5.37258 24 0 18.6274 0 12C0 5.37258 5.37258 0 12 0ZM12.0001 1.79997C6.36683 1.79997 1.80013 6.36666 1.80013 12C1.80013 17.6333 6.36683 22.2 12.0001 22.2C17.6334 22.2 22.2001 17.6333 22.2001 12C22.2001 6.36666 17.6334 1.79997 12.0001 1.79997ZM12 8C12.375 8 12.691 7.87153 12.9479 7.61458C13.2049 7.35764 13.3333 7.04167 13.3333 6.66667C13.3333 6.29167 13.2049 5.97569 12.9479 5.71875C12.691 5.46181 12.375 5.33333 12 5.33333C11.625 5.33333 11.309 5.46181 11.0521 5.71875C10.7951 5.97569 10.6667 6.29167 10.6667 6.66667C10.6667 7.04167 10.7951 7.35764 11.0521 7.61458C11.309 7.87153 11.625 8 12 8ZM13.7037 18.6667C13.9043 18.6667 14.0779 18.5934 14.2245 18.4468C14.3711 18.3002 14.4444 18.1266 14.4444 17.926C14.4444 17.7254 14.3711 17.5518 14.2245 17.4051C14.0779 17.2585 13.9043 17.1852 13.7037 17.1852V17.1852C13.2946 17.1852 12.963 16.8536 12.963 16.4445V10.5186C12.963 10.318 12.8897 10.1443 12.7431 9.99774C12.5965 9.85113 12.4228 9.77783 12.2222 9.77783H10.7407C10.5401 9.77783 10.3665 9.85113 10.2199 9.99774C10.0733 10.1443 10 10.318 10 10.5186C10 10.7192 10.0733 10.8928 10.2199 11.0394C10.3665 11.186 10.5401 11.2593 10.7407 11.2593V11.2593C11.1498 11.2593 11.4815 11.591 11.4815 12.0001V16.4445C11.4815 16.8536 11.1498 17.1852 10.7407 17.1852V17.1852C10.5401 17.1852 10.3665 17.2585 10.2199 17.4051C10.0733 17.5518 10 17.7254 10 17.926C10 18.1266 10.0733 18.3002 10.2199 18.4468C10.3665 18.5934 10.5401 18.6667 10.7407 18.6667H13.7037Z" fill="#026B9C"/>
</svg>
