<svg width="22" height="22" viewBox="0 0 22 22" fill="none" xmlns="http://www.w3.org/2000/svg">
<path fill-rule="evenodd" clip-rule="evenodd" d="M21.275 6.71432C21.225 5.5808 21.0417 4.80151 20.7791 4.12625C20.5082 3.40947 20.0915 2.76775 19.5455 2.23428C19.012 1.69251 18.366 1.27152 17.6576 1.00487C16.9784 0.742287 16.2032 0.558983 15.0697 0.509006C13.9277 0.454796 13.5651 0.442261 10.6687 0.442261C7.77234 0.442261 7.4098 0.454796 6.27205 0.504773C5.13853 0.55475 4.35924 0.738217 3.68414 1.00064C2.96721 1.27152 2.32548 1.68827 1.79201 2.23428C1.25024 2.76775 0.829425 3.41371 0.562609 4.12218C0.300026 4.80151 0.116722 5.57656 0.0667447 6.71009C0.012535 7.85207 0 8.21461 0 11.111C0 14.0074 0.012535 14.3699 0.0625121 15.5077C0.112489 16.6412 0.295956 17.4205 0.558539 18.0958C0.829425 18.8125 1.25024 19.4543 1.79201 19.9877C2.32548 20.5295 2.97144 20.9505 3.67991 21.2172C4.35924 21.4797 5.1343 21.663 6.26798 21.713C7.40557 21.7632 7.76827 21.7755 10.6647 21.7755C13.5611 21.7755 13.9236 21.7632 15.0613 21.713C16.1949 21.663 16.9742 21.4797 17.6493 21.2172C19.083 20.6628 20.2165 19.5293 20.7708 18.0958C21.0332 17.4164 21.2167 16.6412 21.2667 15.5077C21.3166 14.3699 21.3292 14.0074 21.3292 11.111C21.3292 8.21461 21.3249 7.85207 21.275 6.71432ZM19.3538 15.4244C19.3079 16.4662 19.1329 17.0288 18.9871 17.4039C18.6286 18.3333 17.891 19.0709 16.9616 19.4294C16.5865 19.5752 16.0199 19.7502 14.9821 19.796C13.8569 19.8461 13.5194 19.8585 10.673 19.8585C7.82655 19.8585 7.48485 19.8461 6.3637 19.796C5.32183 19.7502 4.75922 19.5752 4.38415 19.4294C3.92166 19.2584 3.50068 18.9876 3.15898 18.6333C2.80474 18.2874 2.53386 17.8706 2.36293 17.4081C2.21706 17.0331 2.04206 16.4662 1.99632 15.4286C1.94618 14.3034 1.93381 13.9657 1.93381 11.1193C1.93381 8.27289 1.94618 7.93119 1.99632 6.8102C2.04206 5.76833 2.21706 5.20572 2.36293 4.83065C2.53386 4.368 2.80474 3.94718 3.16321 3.60531C3.50898 3.25108 3.92573 2.98019 4.38838 2.80942C4.76346 2.66356 5.3303 2.48856 6.36793 2.44265C7.49315 2.39267 7.83078 2.38014 10.677 2.38014C13.5277 2.38014 13.8652 2.39267 14.9863 2.44265C16.0282 2.48856 16.5908 2.66356 16.9659 2.80942C17.4283 2.98019 17.8493 3.25108 18.191 3.60531C18.5453 3.95125 18.8161 4.368 18.9871 4.83065C19.1329 5.20572 19.3079 5.7724 19.3538 6.8102C19.4038 7.93542 19.4164 8.27289 19.4164 11.1193C19.4164 13.9657 19.4038 14.2991 19.3538 15.4244ZM10.6689 5.63074C7.64346 5.63074 5.18872 8.08532 5.18872 11.111C5.18872 14.1366 7.64346 16.5912 10.6689 16.5912C13.6946 16.5912 16.1492 14.1366 16.1492 11.111C16.1492 8.08532 13.6946 5.63074 10.6689 5.63074ZM10.6689 14.6659C8.70616 14.6659 7.11406 13.0739 7.11406 11.111C7.11406 9.14803 8.70616 7.55608 10.6689 7.55608C12.6319 7.55608 14.2238 9.14803 14.2238 11.111C14.2238 13.0739 12.6319 14.6659 10.6689 14.6659ZM16.3653 6.69342C17.072 6.69342 17.6449 6.12055 17.6449 5.41403C17.6449 4.70735 17.072 4.13464 16.3653 4.13464C15.6588 4.13464 15.0859 4.70735 15.0859 5.41403C15.0859 6.12055 15.6588 6.69342 16.3653 6.69342Z" fill="#026B9C"/>
</svg>
