<svg width="22" height="22" viewBox="0 0 22 22" fill="none" xmlns="http://www.w3.org/2000/svg">
<path fill-rule="evenodd" clip-rule="evenodd" d="M0 2.89515C0 1.48093 1.14756 0.333374 2.56178 0.333374C3.97511 0.333374 5.12267 1.48093 5.12356 2.89515C5.12356 4.30937 3.976 5.48093 2.56178 5.48093C1.14756 5.48093 0 4.30937 0 2.89515ZM21.3281 21.6667V21.6658H21.3335V13.8418C21.3335 10.0142 20.5095 7.0658 16.0348 7.0658C13.8837 7.0658 12.4401 8.24624 11.8508 9.36535H11.7886V7.42313H7.5459V21.6658H11.9637V14.6134C11.9637 12.7565 12.3157 10.9609 14.6152 10.9609C16.881 10.9609 16.9148 13.08 16.9148 14.7325V21.6667H21.3281ZM0.351562 7.42395H4.77467V21.6666H0.351562V7.42395Z" fill="#026B9C"/>
</svg>
