<svg width="22" height="22" viewBox="0 0 22 22" fill="none" xmlns="http://www.w3.org/2000/svg">
<path d="M9.64077 4.16818C11.1638 2.5975 12.1035 1.68549 12.4597 1.42942C14.5648 0.117547 17.0177 -0.241232 19.472 1.61565C22.2208 3.93265 21.3274 7.34926 20.5434 8.53378C19.8198 9.57588 18.2154 11.1835 15.7316 13.3595C14.447 14.4755 12.9618 14.9521 11.2746 14.7878C9.46687 14.5741 8.04899 13.7744 7.01258 12.3845C8.52863 11.3246 9.29717 10.8042 9.31681 10.8234C10.7291 12.3708 12.2437 12.5543 13.8608 11.3766L17.6361 7.79157C18.8591 6.25923 18.8871 4.88574 17.7175 3.66973C16.3936 2.74539 15.0753 2.81386 13.7626 3.87514L11.6799 5.96892L9.64077 4.16818ZM11.6926 17.8333C10.1695 19.4012 9.22986 20.3119 8.87363 20.5707C6.76715 21.8825 4.31567 22.2413 1.86138 20.3844C-0.887428 18.0674 0.0059334 14.6522 0.789904 13.4663C1.51357 12.4256 3.11797 10.8165 5.60171 8.64059C6.88496 7.52454 8.37156 7.048 10.0587 7.21232C11.8651 7.42595 13.2843 8.22567 14.3208 9.61422C12.8047 10.6741 12.0362 11.1945 12.0165 11.1753C10.6043 9.62792 9.08961 9.44442 7.47258 10.6221L3.69719 14.2071C2.47425 15.7395 2.4462 17.113 3.61584 18.329C4.93976 19.2533 6.25806 19.1848 7.57076 18.1236L9.65199 16.0312L11.6926 17.8333Z" fill="#026B9C"/>
</svg>
