<svg width="21" height="16" viewBox="0 0 21 16" fill="none" xmlns="http://www.w3.org/2000/svg">
<path fill-rule="evenodd" clip-rule="evenodd" d="M1.06667 3.06668C1.65577 3.06668 2.13333 2.58912 2.13333 2.00002C2.13333 1.41091 1.65577 0.93335 1.06667 0.93335C0.477563 0.93335 0 1.41091 0 2.00002C0 2.58912 0.477563 3.06668 1.06667 3.06668ZM20.5329 0.933391H3.46623V3.06672H20.5329V0.933391ZM15.1996 7.33329H3.46623V9.46663H15.1996V7.33329ZM3.46623 13.7334H18.3996V15.8667H3.46623V13.7334ZM2.13341 8.40012C2.13341 8.98923 1.65585 9.46679 1.06675 9.46679C0.477645 9.46679 8.15392e-05 8.98923 8.15392e-05 8.40012C8.15392e-05 7.81102 0.477645 7.33346 1.06675 7.33346C1.65585 7.33346 2.13341 7.81102 2.13341 8.40012ZM1.06675 15.8667C1.65585 15.8667 2.13341 15.3891 2.13341 14.8C2.13341 14.2109 1.65585 13.7334 1.06675 13.7334C0.477645 13.7334 8.15392e-05 14.2109 8.15392e-05 14.8C8.15392e-05 15.3891 0.477645 15.8667 1.06675 15.8667Z" fill="#026B9C"/>
</svg>
