<svg width="50" height="41" viewBox="0 0 50 41" fill="none" xmlns="http://www.w3.org/2000/svg">
<path fill-rule="evenodd" clip-rule="evenodd" d="M47.5757 7.19701C45.501 8.40961 44.8113 10.0463 44.8113 12.5771V32.7696C44.8113 34.0387 44.9717 34.6148 45.6615 34.9865L46.3526 35.3568L48.2628 34.2457L48.9018 35.5148L42.2635 39.4707L39.9816 37.9388C38.9697 37.2537 38.5432 36.4095 38.5432 34.7741V16.742C38.5432 13.3689 39.6087 11.5736 41.0952 10.4685L41.9453 9.83601L35.6799 6.19544L32.8661 7.88193V34.1422C32.8661 36.3564 32.5479 36.6737 30.5802 37.6745C30.5802 37.6745 29.0429 38.4139 26.9228 39.521H26.4971V10.4154C26.4971 8.99308 26.3353 8.67442 25.5393 8.04262L23.3116 6.25051L20.602 7.7777V22.8603C20.602 25.4952 20.1783 27.3935 18.0541 28.7103L12.746 32.0329L12.2119 31.1382C13.8601 29.8705 14.2304 28.0757 14.2304 25.9678V10.5727C14.2304 8.30471 13.9149 7.40938 11.5228 7.83154C10.6212 7.98744 9.24031 8.19991 8.39079 8.30471C4.88517 8.78061 3.39735 6.30162 5.7874 3.19145C5.7874 3.19145 6.37299 2.4002 7.85874 0.5L9.02977 1.29316L8.17756 2.50581C7.06339 4.09008 7.96567 4.93302 9.77231 4.29782C10.6212 3.98122 12.266 3.35065 13.4344 2.87352C18.4766 0.924119 20.3367 4.14052 20.602 6.03943L26.8694 2.2954L32.2805 6.40652L38.9697 2.2954L44.1215 5.1965C45.8727 6.19544 46.7229 5.77462 47.9446 5.14075L48.9538 4.61441L49.7492 5.93325L47.5757 7.19701ZM14.8152 39.521C14.2845 38.0422 12.746 36.5143 9.98352 36.4095C7.38018 36.3564 3.66334 37.36 0.586162 39.6803L0 38.941C2.23166 36.5143 7.43497 32.6143 12.9023 32.5599C15.7717 32.5599 17.7888 33.5104 19.2225 35.0396L21.6133 33.7201L22.3038 35.0926L14.8152 39.521Z" fill="#181A1E"/>
<path opacity="0.581799" fill-rule="evenodd" clip-rule="evenodd" d="M38.1238 12.3643C37.6406 13.5238 37.4254 14.9498 37.4254 16.5872L37.4782 34.64C37.4782 36.5935 38.071 37.8614 39.4693 38.8117L41.1896 39.9745L40.4898 40.3971L38.6084 39.1279C37.3713 38.284 36.727 36.858 36.727 35.2752V17.6423C36.727 15.2136 37.2657 13.5238 38.1238 12.3643ZM23.3414 7.61023C24.0026 8.13489 24.9947 8.8735 24.9947 8.92652C25.3805 9.29408 25.488 9.50342 25.488 10.3461V40.2368C25.488 40.2368 25.3222 40.3428 25.2132 40.3971H24.7719V11.031C24.7719 9.61073 24.6623 9.61073 23.7812 8.97748L22.513 8.03086L23.3414 7.61023ZM9.93208 37.4463C12.7289 37.4976 13.5382 39.2141 13.6996 39.7516L13.7531 39.9109L12.9445 40.3971C12.5161 39.0007 11.2214 37.8204 8.96002 37.4976C9.28541 37.4463 9.60737 37.4463 9.93208 37.4463ZM12.1767 8.75777C12.7774 8.75772 13.092 9.10417 13.092 10.3853V25.7802C13.092 27.5733 12.7759 28.7333 11.9776 29.5774C12.2416 28.7333 12.3499 27.783 12.3499 26.7823V11.4398C12.3499 9.59488 12.2416 9.38645 11.6045 8.80651H11.7121C11.8821 8.7765 12.0372 8.75777 12.1767 8.75777ZM35.721 7.4463L39.8674 9.8616C39.7061 10.0216 39.5447 10.1817 39.3834 10.3971L35.0742 7.873L35.721 7.4463ZM3.58677 4.33154C3.18 5.51855 3.2307 6.6518 3.74011 7.58107C4.20077 8.40405 5.01426 8.97252 5.98498 9.23085C5.83751 9.24344 5.69403 9.24958 5.55482 9.24958C2.85417 9.24958 1.74788 6.93118 3.58677 4.33154Z" fill="#181A1E"/>
</svg>
