<svg width="24" height="22" viewBox="0 0 24 22" fill="none" xmlns="http://www.w3.org/2000/svg">
<path fill-rule="evenodd" clip-rule="evenodd" d="M7.58463 16.045L2.414 21.2157L1 19.8017L5.71917 15.0825C5.56278 14.9832 5.40639 14.8791 5.25 14.7704C4.17857 14.0256 3.33929 13.3909 2.73214 12.8661C2.125 12.3414 1.21429 11.4866 0 10.3017C2.32144 8.10114 4.38392 6.4677 6.1875 5.40128C7.99108 4.33487 9.92856 3.80167 12 3.80167C13.386 3.80167 14.7809 4.07346 16.1847 4.61702L20.799 0.00268555L22.213 1.41669L18.1035 5.5262C20.052 6.61724 22.0175 8.22599 24 10.3525C23.0357 11.2665 22.4196 11.842 22.1518 12.079C21.8839 12.316 21.2321 12.8407 20.1964 13.6532C19.1607 14.4657 18.3214 15.0243 17.6786 15.329C17.0357 15.6337 16.1875 15.9553 15.1339 16.2939C14.0804 16.6324 13.0357 16.8017 12 16.8017C10.7143 16.8017 9.53572 16.6493 8.46429 16.3446C8.17107 16.2613 7.87785 16.1614 7.58463 16.045ZM9.45099 14.1787C10.2143 14.594 11.0639 14.8017 12 14.8017C13.3704 14.8017 14.5463 14.3566 15.5278 13.4665C16.5093 12.5764 17 11.5215 17 10.3017C17 9.29822 16.6679 8.40633 16.0037 7.62599L13.3695 10.2602C13.519 10.2879 13.6779 10.3017 13.8462 10.3017C14.2308 10.3017 14.6154 10.1916 15 9.97149V10.3017C15 10.9935 14.7115 11.5831 14.1346 12.0705C13.5577 12.558 12.8462 12.8017 12 12.8017C11.6302 12.8017 11.2861 12.7551 10.9677 12.662L9.45099 14.1787ZM12 8.80165C12 8.79852 12 8.79538 12 8.79224C12 8.44633 12.1538 8.11614 12.4615 7.80167H12C11.1538 7.80167 10.4423 8.04538 9.86539 8.53281C9.28846 9.02023 9 9.60985 9 10.3017C9 10.7302 9.11068 11.1195 9.33204 11.4696L7.90868 12.893C7.30289 12.1329 7 11.2691 7 10.3017C7 9.08189 7.49074 8.02695 8.47222 7.13684C9.45371 6.24673 10.6296 5.80167 12 5.80167C12.8935 5.80167 13.7043 5.99086 14.4324 6.36924L12 8.80165Z" fill="#026B9C"/>
</svg>
