<svg width="26" height="21" viewBox="0 0 26 21" fill="none" xmlns="http://www.w3.org/2000/svg">
<path fill-rule="evenodd" clip-rule="evenodd" d="M4.33325 0.673096V7.33976H-8.13007e-05V18.0064C-8.13007e-05 19.4792 1.19383 20.6731 2.66659 20.6731H17.3333H22.6666C24.1393 20.6731 25.3333 19.4792 25.3333 18.0064V0.673096H4.33325ZM6.33325 9.33976V7.33976V2.6731H23.3333V18.0064C23.3333 18.3746 23.0348 18.6731 22.6666 18.6731H17.3333H15.3333H6.04944C6.23656 18.1615 6.33338 17.619 6.33338 17.0701V9.33976H6.33325ZM4.33325 9.33976H4.33338V17.0701C4.33338 17.5379 4.21031 17.9975 3.97654 18.4027L3.82056 18.6731H3.82043H2.66659C2.2984 18.6731 1.99992 18.3746 1.99992 18.0064V9.33976H4.33325ZM14.6666 16.0064V14.0064H7.99992V16.0064H14.6666ZM14.6666 6.00643V12.0064H7.99992V6.00643H14.6666ZM21.3333 16.0064V14.0064H15.9999V16.0064H21.3333ZM21.3333 10.0064V12.0064H15.9999V10.0064H21.3333ZM21.3333 8.00643V6.00643H15.9999V8.00643H21.3333Z" fill="#026B9C"/>
</svg>
