<svg width="28" height="21" viewBox="0 0 28 21" fill="none" xmlns="http://www.w3.org/2000/svg">
<path fill-rule="evenodd" clip-rule="evenodd" d="M3.73333 0.761963H23.6444C25.5988 0.761963 27.3778 2.49547 27.3778 4.39947V17.1787C27.3778 19.1057 25.8098 20.6731 23.8834 20.6731H3.4944C1.56738 20.6731 0 19.1057 0 17.1787V4.4953C0 2.93663 1.41991 0.761963 3.73333 0.761963ZM23.6444 2.00641H3.73333C2.12302 2.00641 1.24444 3.65094 1.24444 4.4953V5.11752H26.1333V4.39947C26.1333 3.19174 24.9007 2.00641 23.6444 2.00641ZM3.4944 19.4286H23.8834C25.1241 19.4286 26.1333 18.4194 26.1333 17.1787V7.60641H1.24444V17.1787C1.24444 18.4194 2.25369 19.4286 3.4944 19.4286ZM19.6 15.4153H22.7111C23.3956 15.4153 23.9556 15.8353 23.9556 16.3486C23.9556 16.862 23.3956 17.282 22.7111 17.282H19.6C18.9156 17.282 18.3556 16.862 18.3556 16.3486C18.3556 15.8353 18.9156 15.4153 19.6 15.4153Z" fill="#026B9C"/>
</svg>
