<svg width="19" height="32" viewBox="0 0 19 32" fill="none" xmlns="http://www.w3.org/2000/svg">
<path fill-rule="evenodd" clip-rule="evenodd" d="M9.33325 0C6.38773 0 3.99992 2.38781 3.99992 5.33333V14.6667C3.99992 17.6122 6.38773 20 9.33325 20C12.2788 20 14.6666 17.6122 14.6666 14.6667V13.3333H9.33317V10.6667H14.6666V8H9.33317V5.33333L14.6666 5.33333C14.6666 2.38781 12.2788 0 9.33325 0ZM18.6666 15.8841C18.6666 15.2117 18.1215 14.6667 17.4492 14.6667C16.7768 14.6667 16.2318 15.2117 16.2318 15.8841C16.2318 19.694 13.1432 22.7826 9.33325 22.7826C5.52329 22.7826 2.4347 19.694 2.4347 15.8841C2.4347 15.2117 1.88966 14.6667 1.21731 14.6667C0.544964 14.6667 -8.11815e-05 15.2117 -8.11815e-05 15.8841C-8.11815e-05 20.6261 3.53634 24.5421 8.11572 25.1387V29.3334L4.72523 29.3334L4.55595 29.3455C3.94703 29.4338 3.4777 29.9917 3.4777 30.6667C3.4777 31.4031 4.03624 32 4.72523 32H14.2302L14.3995 31.9879C15.0084 31.8996 15.4777 31.3417 15.4777 30.6667C15.4777 29.9303 14.9192 29.3334 14.2302 29.3334L10.7824 29.3334V25.1056C15.2489 24.4093 18.6666 20.5458 18.6666 15.8841Z" fill="#026B9C"/>
</svg>
