<svg width="27" height="24" viewBox="0 0 27 24" fill="none" xmlns="http://www.w3.org/2000/svg">
<path fill-rule="evenodd" clip-rule="evenodd" d="M13.3328 20C14.5507 20 15.6725 19.7014 16.6981 19.104C17.7238 18.5067 18.5357 17.696 19.134 16.672C19.7323 15.648 20.0315 14.528 20.0315 13.312C20.0315 12.096 19.7323 10.976 19.134 9.95202C18.5357 8.92802 17.7238 8.11736 16.6981 7.52002C15.6725 6.92269 14.5507 6.62402 13.3328 6.62402C12.1148 6.62402 10.993 6.92269 9.96737 7.52002C8.94172 8.11736 8.12976 8.92802 7.53147 9.95202C6.93318 10.976 6.63403 12.096 6.63403 13.312C6.63403 14.528 6.93318 15.648 7.53147 16.672C8.12976 17.696 8.94172 18.5067 9.96737 19.104C10.993 19.7014 12.1148 20 13.3328 20ZM9.32692 0H17.3397L19.7756 2.624H24.0385C24.765 2.624 25.3846 2.89066 25.8974 3.424C26.4103 3.95734 26.6667 4.58666 26.6667 5.312V21.312C26.6667 22.0373 26.4103 22.6667 25.8974 23.2C25.3846 23.7333 24.765 24 24.0385 24H2.62821C1.90171 24 1.28205 23.7333 0.769231 23.2C0.256408 22.6667 0 22.0373 0 21.312V5.312C0 4.58666 0.256408 3.95734 0.769231 3.424C1.28205 2.89066 1.90171 2.624 2.62821 2.624H6.89103L9.32692 0ZM9.07056 13.312C9.07056 12.544 9.26286 11.8347 9.64748 11.184C10.0321 10.5333 10.5503 10.016 11.202 9.63199C11.8537 9.24799 12.5641 9.05599 13.3334 9.05599C14.1026 9.05599 14.8131 9.24799 15.4648 9.63199C16.1165 10.016 16.6347 10.5333 17.0193 11.184C17.4039 11.8347 17.5962 12.544 17.5962 13.312C17.5962 14.08 17.4039 14.7893 17.0193 15.44C16.6347 16.0907 16.1165 16.608 15.4648 16.992C14.8131 17.376 14.1026 17.568 13.3334 17.568C12.5641 17.568 11.8537 17.376 11.202 16.992C10.5503 16.608 10.0321 16.0907 9.64748 15.44C9.26286 14.7893 9.07056 14.08 9.07056 13.312Z" fill="#026B9C"/>
</svg>
