<svg width="27" height="28" viewBox="0 0 27 28" fill="none" xmlns="http://www.w3.org/2000/svg">
<path fill-rule="evenodd" clip-rule="evenodd" d="M1.99992 7.22872H24.6666V5.89539C24.6666 5.52739 24.3666 5.22872 23.9999 5.22872H21.5986C21.4613 5.61539 21.0999 5.89539 20.6666 5.89539C20.2333 5.89539 19.8719 5.61539 19.7346 5.22872H6.93325C6.79459 5.61539 6.43459 5.89539 5.99992 5.89539C5.56525 5.89539 5.20525 5.61539 5.06659 5.22872H2.66659C2.29859 5.22872 1.99992 5.52739 1.99992 5.89539V7.22872ZM23.9999 25.2287C24.3666 25.2287 24.6666 24.9287 24.6666 24.5621V9.22872H1.99992V24.5621C1.99992 24.9287 2.29859 25.2287 2.66659 25.2287H23.9999ZM21.6667 3.22868H24C25.472 3.22868 26.6667 4.42335 26.6667 5.89535V24.562C26.6667 26.034 25.472 27.2287 24 27.2287H2.66667C1.19467 27.2287 0 26.034 0 24.562V5.89535C0 4.42335 1.19467 3.22868 2.66667 3.22868H5V1.56201C5 1.01001 5.448 0.562012 6 0.562012C6.552 0.562012 7 1.01001 7 1.56201V3.22868H19.6667V1.56201C19.6667 1.01001 20.1147 0.562012 20.6667 0.562012C21.2187 0.562012 21.6667 1.01001 21.6667 1.56201V3.22868ZM14.6666 22.648C14.6666 21.912 15.2626 21.3147 15.9999 21.3147C16.7373 21.3147 17.3333 21.912 17.3333 22.648C17.3333 23.3853 16.7373 23.9813 15.9999 23.9813C15.2626 23.9813 14.6666 23.3853 14.6666 22.648ZM9.33325 11.982C9.33325 11.246 9.93058 10.6486 10.6666 10.6486C11.4026 10.6486 11.9999 11.246 11.9999 11.982C11.9999 12.718 11.4026 13.3153 10.6666 13.3153C9.93058 13.3153 9.33325 12.718 9.33325 11.982ZM15.9999 10.6486C15.2626 10.6486 14.6666 11.246 14.6666 11.982C14.6666 12.718 15.2626 13.3153 15.9999 13.3153C16.7373 13.3153 17.3333 12.718 17.3333 11.982C17.3333 11.246 16.7373 10.6486 15.9999 10.6486ZM19.9999 11.982C19.9999 11.246 20.5959 10.6486 21.3333 10.6486C22.0706 10.6486 22.6666 11.246 22.6666 11.982C22.6666 12.718 22.0706 13.3153 21.3333 13.3153C20.5959 13.3153 19.9999 12.718 19.9999 11.982ZM5.33325 15.9813C4.59725 15.9813 3.99992 16.5787 3.99992 17.3147C3.99992 18.052 4.59725 18.648 5.33325 18.648C6.06925 18.648 6.66659 18.052 6.66659 17.3147C6.66659 16.5787 6.06925 15.9813 5.33325 15.9813ZM9.33325 17.3147C9.33325 16.5787 9.93058 15.9813 10.6666 15.9813C11.4026 15.9813 11.9999 16.5787 11.9999 17.3147C11.9999 18.052 11.4026 18.648 10.6666 18.648C9.93058 18.648 9.33325 18.052 9.33325 17.3147ZM15.9999 15.9813C15.2626 15.9813 14.6666 16.5787 14.6666 17.3147C14.6666 18.052 15.2626 18.648 15.9999 18.648C16.7373 18.648 17.3333 18.052 17.3333 17.3147C17.3333 16.5787 16.7373 15.9813 15.9999 15.9813ZM19.9999 17.3147C19.9999 16.5787 20.5959 15.9813 21.3333 15.9813C22.0706 15.9813 22.6666 16.5787 22.6666 17.3147C22.6666 18.052 22.0706 18.648 21.3333 18.648C20.5959 18.648 19.9999 18.052 19.9999 17.3147ZM5.33325 21.3147C4.59725 21.3147 3.99992 21.912 3.99992 22.648C3.99992 23.3853 4.59725 23.9813 5.33325 23.9813C6.06925 23.9813 6.66659 23.3853 6.66659 22.648C6.66659 21.912 6.06925 21.3147 5.33325 21.3147ZM10.6666 21.3147C9.93058 21.3147 9.33325 21.912 9.33325 22.648C9.33325 23.3853 9.93058 23.9813 10.6666 23.9813C11.4026 23.9813 11.9999 23.3853 11.9999 22.648C11.9999 21.912 11.4026 21.3147 10.6666 21.3147Z" fill="#026B9C"/>
</svg>
