<svg width="20" height="21" viewBox="0 0 20 21" fill="none" xmlns="http://www.w3.org/2000/svg">
<path fill-rule="evenodd" clip-rule="evenodd" d="M19.6193 18.0661L15.8623 14.3008C15.829 14.2675 15.785 14.2541 15.7477 14.2248C16.8592 12.7563 17.5269 10.933 17.5269 8.94966C17.5269 4.11201 13.6033 0.189331 8.76279 0.189331C3.92227 0.189331 0 4.11201 0 8.94966C0 13.7887 3.92227 17.7113 8.76279 17.7113C10.7499 17.7113 12.5771 17.0418 14.0471 15.9267C14.0778 15.9641 14.0911 16.0094 14.1258 16.0441L17.8841 19.808C18.3799 20.3056 19.1689 20.3176 19.6486 19.8361C20.1284 19.3559 20.1151 18.5623 19.6193 18.0661V18.0661ZM8.66731 14.856C5.35352 14.856 2.66667 12.1698 2.66667 8.856C2.66667 5.54216 5.35352 2.856 8.66731 2.856C11.9811 2.856 14.6667 5.54216 14.6667 8.856C14.6667 12.1698 11.9811 14.856 8.66731 14.856V14.856Z" fill="#026B9C"/>
</svg>
