<svg width="24" height="19" viewBox="0 0 24 19" fill="none" xmlns="http://www.w3.org/2000/svg">
<path fill-rule="evenodd" clip-rule="evenodd" d="M15.0473 5.57149L13.9511 5.76957C8.71554 6.7156 5.68951 9.22709 3.9038 11.7878C3.07475 12.9767 2.50289 14.192 2.10877 15.2918C7.10556 11.2439 11.7397 10.853 13.2904 10.853C13.4495 10.853 13.5749 10.8566 13.6651 10.8606C13.7102 10.8626 13.7464 10.8646 13.7737 10.8664L13.8078 10.8688L13.8197 10.8697L13.8244 10.8701L13.8278 10.8704C13.8278 10.8704 13.8282 10.8704 13.714 12.1989C13.714 12.1989 13.5688 12.1864 13.2904 12.1864C13.1603 12.1864 13.0015 12.1896 12.8165 12.1989C12.6843 12.2055 12.5387 12.2153 12.3807 12.2293C10.2679 12.4166 5.9214 13.3576 1.46282 17.6406C1.38094 17.7193 1.29902 17.799 1.21707 17.88C1.051 18.044 0.884817 18.2127 0.718649 18.3862C0.714527 18.3905 0.710406 18.3948 0.706285 18.3992C0.657241 18.4504 0.608199 18.5022 0.55916 18.5543C0.486548 18.6292 0.401834 18.6667 0.31712 18.6667C0.135591 18.6667 -0.0217348 18.5168 0.00246915 18.3046C0.012771 18.2279 0.0242163 18.1473 0.0369315 18.0631C0.0375858 18.0587 0.0382434 18.0544 0.0389045 18.05C0.0712247 17.8371 0.111625 17.6008 0.162115 17.3447C0.185841 17.2243 0.211793 17.0996 0.240184 16.9708C1.05705 13.2661 3.89122 6.2324 13.714 4.45749V0.375292C13.714 0.0598116 14.0689 -0.11437 14.3061 0.0846646L23.866 8.10501C24.0427 8.25326 24.045 8.53083 23.8708 8.68218L14.3109 16.9869C14.0748 17.1921 13.714 17.0189 13.714 16.7004V12.1989L13.8278 10.8704L15.0473 10.9753V14.581L22.153 8.40828L15.0473 2.44694V5.57149Z" fill="#026B9C"/>
</svg>
