<svg width="24" height="14" viewBox="0 0 24 14" fill="none" xmlns="http://www.w3.org/2000/svg">
<path fill-rule="evenodd" clip-rule="evenodd" d="M12 0.00268555C15.9286 0.00268555 19.9286 2.18626 24 6.55347C23.0357 7.46753 22.4196 8.04305 22.1518 8.28003C21.8839 8.51701 21.2321 9.04174 20.1964 9.85425C19.1607 10.6668 18.3214 11.2253 17.6786 11.53C17.0357 11.8347 16.1875 12.1563 15.1339 12.4949C14.0804 12.8334 13.0357 13.0027 12 13.0027C10.7143 13.0027 9.53572 12.8503 8.46429 12.5457C7.39285 12.241 6.32143 11.7162 5.25 10.9714C4.17857 10.2266 3.33929 9.59188 2.73214 9.06714C2.125 8.5424 1.21429 7.68759 0 6.50269C2.32144 4.30215 4.38392 2.66871 6.1875 1.60229C7.99108 0.535883 9.92856 0.00268555 12 0.00268555ZM8.44444 9.66752C9.44445 10.5576 10.6296 11.0027 12 11.0027C13.3704 11.0027 14.5463 10.5576 15.5278 9.66752C16.5093 8.77741 17 7.72247 17 6.50269C17 5.2829 16.5093 4.22797 15.5278 3.33785C14.5463 2.44774 13.3704 2.00269 12 2.00269C10.6296 2.00269 9.45371 2.44774 8.47222 3.33785C7.49074 4.22797 7 5.2829 7 6.50269C7 7.72247 7.48148 8.77741 8.44444 9.66752ZM12 4.99325C12 5.43351 12.1731 5.79514 12.5192 6.07816C12.8654 6.36118 13.3077 6.50269 13.8462 6.50269C14.2308 6.50269 14.6154 6.39262 15 6.1725V6.50269C15 7.19451 14.7115 7.78413 14.1346 8.27155C13.5577 8.75898 12.8462 9.00269 12 9.00269C11.1538 9.00269 10.4423 8.75898 9.86538 8.27155C9.28846 7.78413 9 7.19451 9 6.50269C9 5.81086 9.28846 5.22124 9.86538 4.73382C10.4423 4.24639 11.1538 4.00269 12 4.00269H12.4615C12.1538 4.31715 12 4.64734 12 4.99325Z" fill="#026B9C"/>
</svg>
