<svg width="24" height="25" viewBox="0 0 24 25" fill="none" xmlns="http://www.w3.org/2000/svg">
<path fill-rule="evenodd" clip-rule="evenodd" d="M8.06047 8.95464H-5.90501e-05V0.495361L2.97716 3.57797C5.10375 1.66174 7.9193 0.495361 11.0073 0.495361C17.6347 0.495361 23.0073 5.86794 23.0073 12.4954C23.0073 19.1228 17.6347 24.4954 11.0073 24.4954C7.41955 24.4954 4.19957 22.9209 2.00057 20.4252L3.41819 19.0076C5.25216 21.1429 7.97177 22.4954 11.0073 22.4954C16.5301 22.4954 21.0073 18.0182 21.0073 12.4954C21.0073 6.97251 16.5301 2.49536 11.0073 2.49536C8.42918 2.49536 6.07895 3.47096 4.30563 5.07312L4.78499 5.6222L8.06047 8.95464ZM11.4812 7.64819V12.6611L15.5826 15.1676L14.7566 16.5917L9.68677 13.5441V7.64819H11.4812Z" fill="#026B9C"/>
</svg>
