<svg width="32" height="32" viewBox="0 0 32 32" fill="none" xmlns="http://www.w3.org/2000/svg">
<path fill-rule="evenodd" clip-rule="evenodd" d="M16 0C18.9231 0 21.6282 0.730762 24.1154 2.19231C26.5257 3.57693 28.4231 5.47435 29.8077 7.88462C31.2692 10.3718 32 13.0769 32 16C32 18.9231 31.2692 21.6282 29.8077 24.1154C28.4231 26.5257 26.5257 28.4231 24.1154 29.8077C21.6282 31.2692 18.9231 32 16 32C13.0769 32 10.3718 31.2692 7.88462 29.8077C5.47435 28.3974 3.57693 26.4872 2.19231 24.0769C0.730762 21.5897 0 18.8975 0 16C0 13.1026 0.730762 10.4103 2.19231 7.92308C3.60257 5.51281 5.51281 3.60257 7.92308 2.19231C10.4103 0.730762 13.1026 0 16 0ZM12.7692 23.1923V8.76921L22.3846 16L12.7692 23.1923Z" fill="#026B9C"/>
</svg>
