<svg width="23" height="24" viewBox="0 0 23 24" fill="none" xmlns="http://www.w3.org/2000/svg">
<path opacity="0.9" fill-rule="evenodd" clip-rule="evenodd" d="M16.5259 14.315C16.2439 14.1739 14.8576 13.4917 14.5991 13.3976C14.3406 13.3035 14.1526 13.2564 13.9646 13.5386C13.7766 13.821 13.2362 14.4562 13.0716 14.6444C12.9072 14.8325 12.7426 14.8562 12.4607 14.715C12.1787 14.5738 11.27 14.2761 10.1929 13.3153C9.35457 12.5676 8.78864 11.6441 8.62413 11.3618C8.45967 11.0795 8.60665 10.9269 8.74783 10.7863C8.87468 10.6599 9.02983 10.4569 9.1708 10.2922C9.31182 10.1276 9.35879 10.0099 9.45279 9.82182C9.54679 9.63355 9.49981 9.46888 9.4293 9.32775C9.35879 9.18662 8.79481 7.79852 8.55984 7.23383C8.33093 6.68408 8.09846 6.75854 7.92534 6.74977C7.76105 6.7416 7.57284 6.73987 7.3849 6.73987C7.1969 6.73987 6.89137 6.81043 6.63292 7.0927C6.37441 7.37507 5.64592 8.0573 5.64592 9.44529C5.64592 10.8333 6.6564 12.1742 6.79743 12.3624C6.93839 12.5507 8.78588 15.399 11.6147 16.6205C12.2875 16.911 12.8128 17.0846 13.2223 17.2145C13.8979 17.4292 14.5126 17.3989 14.9985 17.3263C15.5403 17.2453 16.6669 16.6441 16.9019 15.9854C17.1369 15.3266 17.1369 14.762 17.0664 14.6444C16.9959 14.5268 16.8079 14.4562 16.5259 14.315M11.3807 21.3406H11.3769C9.6937 21.34 8.04277 20.8878 6.6025 20.0331L6.26001 19.8298L2.70969 20.7611L3.6573 17.2996L3.43429 16.9447C2.49529 15.4512 1.99938 13.7251 2.00008 11.9526C2.00214 6.78063 6.21022 2.57288 11.3844 2.57288C13.8899 2.57374 16.2452 3.55079 18.0162 5.32386C19.7873 7.09688 20.762 9.45375 20.7611 11.9601C20.759 17.1325 16.5509 21.3406 11.3807 21.3406M19.3642 3.9764C17.2334 1.84314 14.3998 0.667817 11.3806 0.666626C5.15996 0.666626 0.0970821 5.72913 0.0945928 11.9517C0.0937811 13.9408 0.613446 15.8824 1.6011 17.594L0 23.4422L5.98283 21.8728C7.63128 22.7719 9.48726 23.2458 11.3761 23.2465H11.3807H11.3808C17.6008 23.2465 22.6642 18.1834 22.6667 11.9607C22.6678 8.94517 21.495 6.10961 19.3642 3.9764" fill="#026B9C"/>
</svg>
