<svg width="22" height="21" viewBox="0 0 22 21" fill="none" xmlns="http://www.w3.org/2000/svg">
<path fill-rule="evenodd" clip-rule="evenodd" d="M5.33333 4.6731V2.00643C5.33333 1.27005 5.93029 0.673096 6.66667 0.673096H14.6667C15.403 0.673096 16 1.27005 16 2.00643V4.6731H19.2308C19.812 4.6731 20.3077 4.87269 20.7179 5.2719C21.1282 5.6711 21.3333 6.14215 21.3333 6.68507V18.6611C21.3333 19.204 21.1282 19.6751 20.7179 20.0743C20.3077 20.4735 19.812 20.6731 19.2308 20.6731H2.10256C1.52136 20.6731 1.02564 20.4735 0.615385 20.0743C0.205126 19.6751 0 19.204 0 18.6611V6.68507C0 6.14215 0.205126 5.6711 0.615385 5.2719C1.02564 4.87269 1.52136 4.6731 2.10256 4.6731H5.33333ZM7.2 4.6731V2.53976H14.1333V4.6731H7.2ZM2.10256 6.53976C2.02983 6.53976 1.99961 6.55134 1.99208 6.55437C1.98508 6.55719 1.96081 6.56727 1.91717 6.60973C1.89052 6.63566 1.87654 6.65365 1.87026 6.66252L1.8674 6.66671C1.86704 6.67055 1.86667 6.67657 1.86667 6.68507V10.1605L9.33333 12.292V11.3398H12V12.293L19.4667 10.1615V6.68507C19.4667 6.6806 19.4666 6.67681 19.4664 6.67367C19.4663 6.67084 19.4659 6.66671 19.4659 6.66671L19.4631 6.66252C19.4568 6.65365 19.4428 6.63566 19.4162 6.60973C19.3725 6.56727 19.3483 6.55719 19.3413 6.55437C19.3337 6.55134 19.3035 6.53976 19.2308 6.53976H2.10256ZM19.4667 12.0268L12 14.1595V14.6731C12 15.4095 11.403 16.0064 10.6667 16.0064C9.93029 16.0064 9.33333 15.4095 9.33333 14.6731V14.1585L1.86667 12.0259V18.6611C1.86667 18.6696 1.86704 18.6756 1.8674 18.6795L1.87026 18.6837C1.87654 18.6925 1.89052 18.7105 1.91717 18.7365C1.96081 18.7789 1.98508 18.789 1.99208 18.7918C1.99961 18.7949 2.02983 18.8064 2.10256 18.8064H19.2308C19.3035 18.8064 19.3337 18.7949 19.3413 18.7918C19.3483 18.789 19.3725 18.7789 19.4162 18.7365C19.4428 18.7105 19.4568 18.6925 19.4631 18.6837L19.4659 18.6795C19.4663 18.6756 19.4667 18.6696 19.4667 18.6611V12.0268Z" fill="#026B9C"/>
</svg>
