<svg width="22" height="16" viewBox="0 0 22 16" fill="none" xmlns="http://www.w3.org/2000/svg">
<path d="M20.4267 2.18885C19.848 1.15951 19.22 0.970179 17.9413 0.898179C16.664 0.811513 13.452 0.775513 10.6693 0.775513C7.88133 0.775513 4.668 0.811513 3.392 0.896846C2.116 0.970179 1.48667 1.15818 0.902667 2.18885C0.306667 3.21685 0 4.98751 0 8.10485C0 8.10751 0 8.10885 0 8.10885C0 8.11151 0 8.11285 0 8.11285V8.11551C0 11.2195 0.306667 13.0035 0.902667 14.0208C1.48667 15.0502 2.11467 15.2368 3.39067 15.3235C4.668 15.3982 7.88133 15.4422 10.6693 15.4422C13.452 15.4422 16.664 15.3982 17.9427 15.3248C19.2213 15.2382 19.8493 15.0515 20.428 14.0222C21.0293 13.0048 21.3333 11.2208 21.3333 8.11685C21.3333 8.11685 21.3333 8.11285 21.3333 8.11018C21.3333 8.11018 21.3333 8.10751 21.3333 8.10618C21.3333 4.98751 21.0293 3.21685 20.4267 2.18885ZM8 12.1088V4.10885L14.6667 8.10885L8 12.1088Z" fill="#026B9C"/>
</svg>
